<svg id="Layer_1" data-name="Layer 1" xmlns="http://www.w3.org/2000/svg" viewBox="0 0 206.44604 54.44159"><defs><style>.cls-1{fill:#fff}</style></defs><title>krapka_club_logo_white</title><path class="cls-1" d="M74.054 43.399a5.703 5.703 0 0 1 3.942 1.459l-.933 1.444a4.757 4.757 0 0 0-2.919-1.128 3.439 3.439 0 0 0-3.58 3.67 3.574 3.574 0 0 0 3.595 3.822 4.578 4.578 0 0 0 3.1-1.354l1.022 1.4a5.724 5.724 0 0 1-4.197 1.73 5.522 5.522 0 0 1-.03-11.043zm16.437.181h1.942v9.011h4.618v1.67h-6.56zm18.227 0h1.94v6.83a2.365 2.365 0 0 0 4.725 0v-6.83h1.94v6.844a3.939 3.939 0 0 1-4.288 4.018c-2.588 0-4.317-1.625-4.317-4.018zm21.613 0h3.807c1.94 0 3.31.991 3.31 2.752a2.528 2.528 0 0 1-1.295 2.287v.03a2.5 2.5 0 0 1 1.73 2.512c0 2.137-1.714 3.1-3.686 3.1h-3.866zm3.821 4.362a1.275 1.275 0 0 0 1.325-1.37 1.24 1.24 0 0 0-1.355-1.323h-1.85v2.693zm.196 4.649a1.542 1.542 0 1 0 0-3.084h-2.077v3.084zM23.996 26.973L13.23 15.705l8.895-8.759a14.647 14.647 0 0 0 1.688-1.938 2.967 2.967 0 0 0 .548-1.711A3.028 3.028 0 0 0 23.334.924a3.438 3.438 0 0 0-2.35-.912 2.893 2.893 0 0 0-1.619.433 5.126 5.126 0 0 0-1.026.844L6.843 13.515v-1.981a3.186 3.186 0 0 0-.981-2.486 3.496 3.496 0 0 0-2.44-.89 3.274 3.274 0 0 0-2.487.981A3.343 3.343 0 0 0 0 11.534v18.769a3.07 3.07 0 0 0 .981 2.395 3.494 3.494 0 0 0 2.44.89 3.274 3.274 0 0 0 2.487-.982 3.228 3.228 0 0 0 .935-2.303V18.397l12.043 13.047a11.958 11.958 0 0 0 1.71 1.596 2.905 2.905 0 0 0 1.758.547 4.134 4.134 0 0 0 2.486-.775 2.734 2.734 0 0 0 1.072-2.372 3.098 3.098 0 0 0-.57-1.847 15.604 15.604 0 0 0-1.346-1.62zm26.864-7.482a13.235 13.235 0 0 0 3.284-.957 9.49 9.49 0 0 0 2.692-1.757 7.85 7.85 0 0 0 1.801-2.555 8.142 8.142 0 0 0 .662-3.353q0-5.382-3.033-7.846Q53.23.56 47.94.559h-8.029a3.404 3.404 0 0 0-2.623.959 3.67 3.67 0 0 0-.89 2.6v17.7a3.43 3.43 0 1 0 6.843 0v-1.962h.091l10.31 12.545a3.1 3.1 0 0 0 1.278.913 3.898 3.898 0 0 0 1.368.273 3.217 3.217 0 0 0 1.369-.296 3.404 3.404 0 0 0 1.095-.798 3.786 3.786 0 0 0 .707-1.118 3.419 3.419 0 0 0 .25-1.3 3.015 3.015 0 0 0-.911-2.008zm-7.62-4.561V6.855h4.7a4.48 4.48 0 0 1 3.078 1.026 3.774 3.774 0 0 1 1.163 2.988 3.86 3.86 0 0 1-1.163 2.989 4.362 4.362 0 0 1-3.079 1.072zm54.375 13.959l-7.14-19.75c-.026-.072-.048-.146-.079-.216l-.017-.048-.008.001a2.897 2.897 0 0 0-5.321 2.289l-.005.002 2.944 9.191h-8.667l3.06-9.248-.01-.004a2.895 2.895 0 0 0-5.339-2.23L69.56 28.889a3.74 3.74 0 0 0-.206.57 3.362 3.362 0 0 0-.113.935 2.953 2.953 0 0 0 1.003 2.281 3.412 3.412 0 0 0 2.372.912 3.112 3.112 0 0 0 2.167-.684A4.125 4.125 0 0 0 75.9 31.17l1.46-4.517h12.682l1.46 4.563a3.938 3.938 0 0 0 1.117 1.71 3.258 3.258 0 0 0 2.213.661 3.195 3.195 0 0 0 2.212-.844 2.785 2.785 0 0 0 .935-2.166 5.069 5.069 0 0 0-.068-.685 4.336 4.336 0 0 0-.296-1.003zm68.646-1.916l-10.766-11.268 3.2-3.006a14.655 14.655 0 0 0 1.687-1.938 2.968 2.968 0 0 0 .548-1.711 3.029 3.029 0 0 0-1.027-2.372 3.439 3.439 0 0 0-2.35-.912 2.892 2.892 0 0 0-1.619.433 5.127 5.127 0 0 0-1.026.844l-5.8 6.472V3.388a3.186 3.186 0 0 0-.98-2.486 3.497 3.497 0 0 0-2.441-.89 3.274 3.274 0 0 0-2.486.981 3.342 3.342 0 0 0-.935 2.395v26.915a3.07 3.07 0 0 0 .98 2.395 3.494 3.494 0 0 0 2.441.89 3.274 3.274 0 0 0 2.486-.982 3.228 3.228 0 0 0 .935-2.303V18.397l12.044 13.047a11.958 11.958 0 0 0 1.71 1.596 2.905 2.905 0 0 0 1.757.547 4.134 4.134 0 0 0 2.486-.775 2.734 2.734 0 0 0 1.072-2.372 3.099 3.099 0 0 0-.57-1.847 15.604 15.604 0 0 0-1.346-1.62zm40.117 2.919a4.338 4.338 0 0 0-.296-1.003l-9.033-25.09a6.403 6.403 0 0 0-1.825-2.715 4.788 4.788 0 0 0-6.067.023 6.432 6.432 0 0 0-1.87 2.692l-9.26 25.09a3.687 3.687 0 0 0-.207.57 3.357 3.357 0 0 0-.113.935 2.954 2.954 0 0 0 1.003 2.281 3.412 3.412 0 0 0 2.372.912 3.11 3.11 0 0 0 2.167-.684 4.124 4.124 0 0 0 1.118-1.733l1.46-4.517 1.962-6.295 4.333-13.23h.091l4.243 13.23 2.053 6.295 1.46 4.563a3.937 3.937 0 0 0 1.117 1.71 3.258 3.258 0 0 0 2.213.661 3.196 3.196 0 0 0 2.212-.844 2.785 2.785 0 0 0 .935-2.166 5.06 5.06 0 0 0-.068-.685z"/><circle class="cls-1" cx="3.427" cy="3.362" r="3.362"/><circle class="cls-1" cx="39.82" cy="30.172" r="3.362"/><circle class="cls-1" cx="83.701" cy="3.382" r="3.362"/><circle class="cls-1" cx="111.911" cy="30.172" r="3.362"/><circle class="cls-1" cx="163.386" cy="3.362" r="3.362"/><circle class="cls-1" cx="192.016" cy="23.729" r="3.362"/><path class="cls-1" d="M128.54 3.103Q125.504.639 120.214.639h-8.029a3.404 3.404 0 0 0-2.623.958 3.67 3.67 0 0 0-.89 2.6V21.9a3.43 3.43 0 1 0 6.843 0v-.64h4.7q5.29 0 8.325-2.463 3.032-2.463 3.033-7.847 0-5.382-3.033-7.846zm-5.247 10.835a4.48 4.48 0 0 1-3.079 1.026h-4.7v-8.03h4.7a4.48 4.48 0 0 1 3.079 1.027 3.774 3.774 0 0 1 1.163 2.988 3.774 3.774 0 0 1-1.163 2.989z"/></svg>