<svg version="1.1" id="Слой_1" xmlns="http://www.w3.org/2000/svg" xmlns:xlink="http://www.w3.org/1999/xlink" x="0" y="0" width="210" height="56.214" viewBox="0 0 210 56.214" xml:space="preserve"><defs><path id="SVGID_1_" d="M-201.212-367h612v792h-612z"/></defs><clipPath id="SVGID_2_"><use xlink:href="#SVGID_1_" overflow="visible"/></clipPath><path clip-path="url(#SVGID_2_)" fill="#303434" d="M76.144 45.172c1.399 0 2.904.45 3.942 1.459l-.932 1.443c-.753-.646-1.881-1.128-2.919-1.128-2.348 0-3.581 1.701-3.581 3.671 0 2.001 1.279 3.822 3.595 3.822 1.144 0 2.288-.557 3.1-1.355l1.023 1.4c-.917.932-2.287 1.73-4.198 1.73-3.354 0-5.521-2.424-5.521-5.566 0-3.099 2.271-5.476 5.491-5.476m16.437.181h1.941v9.011h4.619v1.67h-6.56zm18.227 0h1.94v6.829c0 1.444.933 2.258 2.362 2.258s2.362-.813 2.362-2.258v-6.829h1.94v6.845c0 2.392-1.714 4.017-4.288 4.017-2.588 0-4.317-1.625-4.317-4.017v-6.845zm21.613-.001h3.807c1.94 0 3.311.992 3.311 2.753 0 .993-.482 1.852-1.294 2.287v.03c1.173.346 1.729 1.429 1.729 2.512 0 2.137-1.715 3.101-3.686 3.101h-3.867V45.352zm3.822 4.363c.842 0 1.323-.602 1.323-1.37 0-.766-.467-1.323-1.354-1.323h-1.851v2.693h1.882zm.195 4.649c.993 0 1.55-.647 1.55-1.551 0-.888-.57-1.533-1.55-1.533h-2.076v3.084h2.076z"/><path clip-path="url(#SVGID_2_)" fill="#F26122" d="M26.086 28.746L15.32 17.478l8.896-8.759c.759-.759 1.322-1.406 1.687-1.938a2.961 2.961 0 0 0 .548-1.711c0-.973-.343-1.764-1.026-2.372-.685-.608-1.469-.912-2.35-.912-.638 0-1.179.144-1.619.433-.442.289-.784.57-1.027.844L8.933 15.288v-1.981c0-1.064-.327-1.894-.981-2.486-.654-.593-1.467-.89-2.44-.89-1.034 0-1.864.328-2.486.981-.624.655-.936 1.453-.936 2.395v18.769c0 1.004.327 1.802.981 2.396.654.593 1.467.889 2.441.889 1.033 0 1.862-.326 2.486-.98.623-.653.935-1.421.935-2.304V20.169l12.044 13.047c.638.698 1.208 1.23 1.71 1.597.502.365 1.087.546 1.757.546.942 0 1.771-.258 2.486-.775.714-.516 1.072-1.307 1.072-2.371 0-.699-.19-1.315-.57-1.848a15.554 15.554 0 0 0-1.346-1.619m26.863-7.482a13.228 13.228 0 0 0 3.285-.957 9.51 9.51 0 0 0 2.692-1.757 7.853 7.853 0 0 0 1.801-2.555c.441-.988.662-2.105.662-3.352 0-3.589-1.011-6.205-3.033-7.847-2.024-1.642-4.799-2.464-8.326-2.464h-8.029c-1.157 0-2.03.32-2.623.959-.593.639-.89 1.505-.89 2.6v17.701c0 1.157.327 2.038.981 2.646.654.608 1.467.912 2.441.912.973 0 1.786-.304 2.44-.912.654-.608.981-1.489.981-2.646V21.63h.091l10.31 12.545c.365.426.79.729 1.278.912.485.183.942.272 1.368.272.487 0 .942-.099 1.368-.296a3.4 3.4 0 0 0 1.096-.798c.303-.334.539-.707.707-1.118.167-.411.25-.844.25-1.3 0-.668-.304-1.338-.912-2.007l-7.938-8.576zm-7.618-4.561V8.627h4.699c1.277 0 2.304.342 3.079 1.027.776.684 1.163 1.681 1.163 2.988 0 1.277-.387 2.273-1.163 2.988-.775.715-1.802 1.072-3.079 1.072h-4.699zm54.374 13.958l-7.14-19.749c-.026-.073-.047-.147-.079-.217l-.017-.048-.008.002a2.898 2.898 0 0 0-5.321 2.288l-.005.002 2.944 9.192h-8.667l3.06-9.249-.009-.004a2.89 2.89 0 0 0 .189-1.005 2.9 2.9 0 1 0-5.529-1.225l-.008-.001-.02.053c-.023.051-.039.106-.059.159l-7.387 19.802a3.388 3.388 0 0 0-.319 1.505c0 .913.334 1.674 1.003 2.281a3.41 3.41 0 0 0 2.372.912c.942 0 1.666-.227 2.167-.683.502-.457.874-1.034 1.118-1.734l1.46-4.517h12.682l1.46 4.563c.243.7.615 1.271 1.118 1.71.502.441 1.238.661 2.212.661a3.19 3.19 0 0 0 2.212-.844c.623-.563.935-1.284.935-2.166 0-.152-.022-.38-.068-.686a4.34 4.34 0 0 0-.296-1.002m68.647-1.915l-10.767-11.268 3.199-3.005c.759-.76 1.323-1.406 1.688-1.939a2.974 2.974 0 0 0 .547-1.711c0-.973-.342-1.763-1.026-2.372-.685-.608-1.468-.912-2.35-.912-.639 0-1.18.145-1.619.433-.442.289-.784.57-1.027.844l-5.799 6.472V5.16c0-1.064-.327-1.893-.98-2.486-.654-.593-1.468-.889-2.44-.889-1.034 0-1.864.327-2.486.98-.624.655-.936 1.453-.936 2.395v26.915c0 1.004.327 1.802.98 2.396.654.593 1.468.889 2.441.889 1.033 0 1.862-.326 2.486-.98.623-.653.935-1.421.935-2.304V20.169l12.044 13.047c.638.698 1.208 1.23 1.71 1.597.502.365 1.087.546 1.757.546.942 0 1.771-.258 2.486-.775.714-.516 1.072-1.307 1.072-2.371 0-.699-.19-1.315-.57-1.848a15.666 15.666 0 0 0-1.345-1.619m40.117 2.919a4.41 4.41 0 0 0-.297-1.003l-9.033-25.09c-.396-1.096-1.003-2-1.824-2.715-.821-.714-1.841-1.072-3.057-1.072-1.155 0-2.159.365-3.011 1.095s-1.476 1.627-1.87 2.692l-9.261 25.09c-.061.122-.13.312-.206.569a3.35 3.35 0 0 0-.114.936c0 .913.335 1.673 1.004 2.28.67.608 1.461.912 2.372.912.942 0 1.666-.227 2.167-.684.502-.456.874-1.033 1.118-1.733l1.46-4.517 1.962-6.295 4.333-13.229h.092l4.242 13.229 2.054 6.295 1.46 4.563c.242.7.614 1.271 1.117 1.711.502.44 1.238.66 2.213.66.85 0 1.588-.28 2.212-.844.623-.562.935-1.284.935-2.166a5.164 5.164 0 0 0-.068-.684M5.517 8.497a3.362 3.362 0 1 0 0-6.723 3.362 3.362 0 0 0 0 6.723M41.91 28.583a3.362 3.362 0 1 0 0 6.723 3.362 3.362 0 0 0 0-6.723"/><path clip-path="url(#SVGID_2_)" fill="#F26122" d="M85.792 8.517a3.362 3.362 0 1 0 0-6.723 3.362 3.362 0 0 0 0 6.723m28.21 20.066a3.362 3.362 0 1 0 0 6.723 3.362 3.362 0 0 0 0-6.723m51.474-20.086a3.362 3.362 0 1 0 0-6.723 3.362 3.362 0 0 0 0 6.723m28.63 13.643a3.362 3.362 0 1 0 0 6.723 3.362 3.362 0 0 0 0-6.723M130.63 4.875c-2.024-1.642-4.798-2.464-8.326-2.464h-8.029c-1.155 0-2.028.32-2.623.959-.593.639-.889 1.505-.889 2.6v17.701c0 1.157.326 2.039.981 2.646.652.608 1.466.912 2.439.912s1.786-.304 2.44-.912c.653-.607.98-1.489.98-2.646v-.639h4.699c3.528 0 6.302-.821 8.326-2.463 2.021-1.643 3.033-4.259 3.033-7.847.002-3.589-1.01-6.205-3.031-7.847m-5.247 10.835c-.775.685-1.802 1.026-3.079 1.026h-4.699V8.708h4.699c1.277 0 2.304.342 3.079 1.027.776.684 1.163 1.681 1.163 2.988 0 1.306-.387 2.302-1.163 2.987"/></svg>