<svg xmlns="http://www.w3.org/2000/svg" width="113" height="93" viewBox="0 0 113 93"><path fill="#fff" d="M93.59 26.54c-5.34 0-7.06 1.93-7.06 7.96 0 4.72 2.48 9.73 7.06 9.73 4.59 0 7.07-5.01 7.07-9.73 0-6.03-1.72-7.96-7.07-7.96zm0 21.23C87.56 47.77 83 42.06 83 34.5 83 29.15 84.2 23 93.59 23s10.6 6.15 10.6 11.5c0 7.56-4.56 13.27-10.6 13.27z"/><path fill="#fff" d="M80.82 51.34L79 48.31 87.83 43l1.81 3.03zm26.77 10.89H97v-3.54h10.59c.53 0 1.77-1.37 1.77-3.54v-2.51l-11.47-6.57L99.64 43l13.25 7.59v4.56c0 3.84-2.43 7.08-5.3 7.08M12.53 34.5c0 4.72 2.48 9.73 7.06 9.73 4.59 0 7.07-5.01 7.07-9.73 0-6.03-1.72-7.96-7.07-7.96-5.34 0-7.06 1.93-7.06 7.96zM9 34.5C9 29.15 10.2 23 19.59 23s10.6 6.15 10.6 11.5c0 7.56-4.56 13.27-10.6 13.27C13.56 47.77 9 42.06 9 34.5z"/><path fill="#fff" d="M32.83 51.34L24 46.03 25.82 43l8.82 5.31zM15.89 62.23H5.3c-2.87 0-5.3-3.24-5.3-7.08v-4.56L13.25 43 15 46.07 3.53 52.64v2.51c0 2.17 1.24 3.54 1.77 3.54h10.59zm3.64 30.23H16V76.54c0-14.18 7.85-17.17 16.16-20.33A63.98 63.98 0 0 0 41.61 52l1.75 3.07a67.28 67.28 0 0 1-9.95 4.45c-8.36 3.18-13.88 5.28-13.88 17.02zm77.83 0h-3.53V76.54c0-11.74-5.52-13.84-13.88-17.02A67.28 67.28 0 0 1 70 55.07L71.75 52a63.98 63.98 0 0 0 9.45 4.21c8.31 3.16 16.16 6.15 16.16 20.33z"/><path fill="#fff" d="M56.4 54.8l6.71 3.37 5.14-5.15-2.1-3.15-9.75 1.63-9.76-1.63-2.1 3.15 5.14 5.15zm7.41 7.67l-7.41-3.71-7.41 3.71-8.99-9L44.97 46l11.43 1.91L67.83 46l4.96 7.47z"/><path fill="#fff" d="M64 48.08h3.53V41H64zm-18 0h3.53V41H46zm9 26.46h3.53V71H55zm0-7h3.53V64H55z"/><path fill="#fff" d="M56.66 44.54c-.24 0-5.76-.02-9.62-1.96l-.19-.11c-.24-.16-5.98-4.13-7.83-17.14l-.02-.25V18h3.53v6.95c1.52 10.47 5.65 14.08 6.21 14.53 3.12 1.49 7.87 1.52 7.92 1.52.04 0 4.8-.03 7.9-1.52.56-.44 4.7-4.08 6.22-14.53V18h3.53l-.02 7.33c-1.85 13.01-7.58 16.98-7.83 17.14l-.19.11c-3.86 1.94-9.38 1.96-9.61 1.96m17.65-26.85h-3.53c0-9.79-4.35-14.15-14.12-14.15S42.53 7.9 42.53 17.69H39C39 5.95 44.94 0 56.66 0c11.71 0 17.65 5.95 17.65 17.69"/><path fill="#fff" d="M65.59 22.95l-17.66-7.07-6.35 3.18L40 15.89 47.77 12l17.66 7.08 6.35-3.19 1.58 3.17zM30 92.15h3.53V78H30zm49 0h3.53V78H79z"/></svg>